<svg version="1.1" id="Layer_1" xmlns="http://www.w3.org/2000/svg" xmlns:xlink="http://www.w3.org/1999/xlink" x="0px" y="0px"
	 width="100%" viewBox="0 0 400 400" enable-background="new 0 0 400 400" xml:space="preserve">
<path fill="#000000" opacity="1.000000" stroke="none" 
	d="
M269.000000,401.000000 
	C180.694107,401.000000 92.888199,400.978943 5.082428,401.083038 
	C1.839708,401.086884 0.891815,400.678223 0.895245,397.084747 
	C1.019938,266.459015 1.020841,135.833130 0.894155,5.207412 
	C0.890548,1.488206 1.797370,0.909204 5.290106,0.911997 
	C135.749252,1.016317 266.208496,1.013872 396.667664,0.922578 
	C400.039612,0.920218 401.118805,1.325868 401.114746,5.165177 
	C400.976715,135.790863 400.981384,266.416779 401.099976,397.042480 
	C401.103149,400.549530 400.294250,401.102692 396.959625,401.091736 
	C354.473450,400.952454 311.986633,401.000000 269.000000,401.000000 
z"/>
<path fill="#FBFBFB" opacity="1.000000" stroke="none" 
	d="
M269.000000,314.007202 
	C262.334717,314.007172 256.163055,313.841125 250.006851,314.078064 
	C246.995422,314.193970 245.199127,313.174469 243.514206,310.704163 
	C224.261856,282.477661 204.903137,254.323700 185.397354,225.894638 
	C175.781448,237.047134 166.223648,248.108215 156.692490,259.192230 
	C143.254074,274.820038 129.421936,290.136322 116.608841,306.261780 
	C111.375092,312.848511 105.750786,315.023804 98.004684,314.049683 
	C95.746590,313.765686 93.422554,314.006012 90.119102,314.006012 
	C95.188194,307.994965 99.654091,302.616730 104.207642,297.313751 
	C124.242043,273.982056 144.295303,250.666565 164.358978,227.360046 
	C167.503784,223.706955 170.621185,220.017761 173.970932,216.557953 
	C176.224518,214.230316 176.271576,212.501740 174.359726,209.733078 
	C146.511505,169.404129 118.803078,128.978607 91.065475,88.573265 
	C90.887253,88.313660 90.767769,88.013733 90.593185,87.679703 
	C91.380653,86.376099 92.668411,87.024323 93.686584,87.022072 
	C113.015541,86.979340 132.345169,87.066658 151.673096,86.918579 
	C154.840622,86.894318 156.775177,87.776665 158.591461,90.450066 
	C176.027283,116.113884 193.605164,141.681198 211.156235,167.266617 
	C211.811447,168.221786 212.608566,169.079620 213.545731,170.237534 
	C223.401459,158.825577 233.181229,147.549393 242.907791,136.227524 
	C256.119293,120.849121 269.319366,105.460625 282.445312,90.009323 
	C284.311188,87.812897 286.268463,86.764954 289.235565,86.923714 
	C294.016327,87.179520 298.820770,86.992416 304.668243,86.992416 
	C299.033905,93.640274 293.984009,99.658463 288.869873,105.621552 
	C272.963806,124.168037 257.047211,142.705566 241.104401,161.220490 
	C235.898148,167.266724 230.729080,173.354523 225.284286,179.181580 
	C222.777634,181.864212 222.409943,183.788116 224.643173,187.019211 
	C252.707840,227.623795 280.612396,268.339050 308.555420,309.027710 
	C309.557129,310.486359 310.532715,311.962952 311.907990,314.007202 
	C297.338989,314.007202 283.419495,314.007202 269.000000,314.007202 
z"/>
<path fill="#030303" opacity="1.000000" stroke="none" 
	d="
M173.259811,139.752838 
	C196.671417,173.179443 219.822784,206.351807 242.991913,239.511749 
	C256.331726,258.603821 269.703430,277.673584 283.045746,296.763885 
	C283.667816,297.653931 284.142883,298.646667 284.920349,299.998260 
	C275.536102,299.998260 266.591675,299.901764 257.651611,300.056366 
	C254.925385,300.103516 254.081985,298.381104 252.827789,296.586182 
	C212.997849,239.583344 173.118744,182.614868 133.260513,125.631798 
	C127.899254,117.967110 122.609230,110.252602 116.898628,102.001122 
	C126.620453,102.001122 135.713364,102.072243 144.803589,101.947029 
	C146.865234,101.918625 147.845413,103.124054 148.758514,104.435913 
	C156.875717,116.097824 164.932449,127.801811 173.259811,139.752838 
z"/>
</svg>